<svg xmlns="http://www.w3.org/2000/svg" width="40" height="41" viewBox="0 0 40 41"><path fill-rule="evenodd" clip-rule="evenodd" d="M11.2998 2.63037H28.7003C30.072 2.63037 31.1474 2.63036 32.0118 2.70098C32.8919 2.77289 33.619 2.92175 34.2772 3.25708C35.3591 3.80836 36.2387 4.68799 36.79 5.76993C37.1253 6.42806 37.2742 7.15517 37.3461 8.03531C37.4167 8.89963 37.4167 9.97503 37.4167 11.3467V28.7473C37.4167 30.119 37.4167 31.1944 37.3461 32.0588C37.2742 32.9389 37.1253 33.666 36.79 34.3242C36.2387 35.4061 35.3591 36.2857 34.2772 36.837C33.619 37.1723 32.8919 37.3212 32.0118 37.3931C31.1474 37.4637 30.0721 37.4637 28.7004 37.4637H11.2998C9.92813 37.4637 8.85264 37.4637 7.98831 37.3931C7.10817 37.3212 6.38106 37.1723 5.72293 36.837C4.641 36.2857 3.76136 35.4061 3.21009 34.3242C2.87475 33.666 2.7259 32.9389 2.65399 32.0588C2.58337 31.1944 2.58337 30.119 2.58337 28.7473V11.3468C2.58337 9.97509 2.58337 8.89966 2.65399 8.03531C2.7259 7.15517 2.87475 6.42806 3.21009 5.76993C3.76136 4.68799 4.641 3.80836 5.72293 3.25708C6.38106 2.92175 7.10817 2.77289 7.98831 2.70098C8.85266 2.63036 9.92809 2.63037 11.2998 2.63037ZM20.5304 11.1834C20.2375 10.8905 19.7627 10.8905 19.4698 11.1834L12.803 17.8501C12.5101 18.143 12.5101 18.6179 12.803 18.9108C13.0959 19.2036 13.5707 19.2036 13.8636 18.9108L19.2501 13.5244L19.2501 28.3804C19.2501 28.7946 19.5859 29.1304 20.0001 29.1304C20.4143 29.1304 20.7501 28.7946 20.7501 28.3804L20.7501 13.5244L26.1364 18.9108C26.4293 19.2036 26.9042 19.2036 27.1971 18.9108C27.49 18.6179 27.49 18.143 27.1971 17.8501L20.5304 11.1834Z"></path></svg>