<svg xmlns="http://www.w3.org/2000/svg" width="24" height="25" viewBox="0 0 24 25"><path fill-rule="evenodd" clip-rule="evenodd" d="M14.75 3.00001C14.75 2.5858 14.4142 2.25001 14 2.25001C13.5858 2.25001 13.25 2.5858 13.25 3.00001V5.33048C13.25 5.86462 13.25 6.31048 13.2797 6.67471C13.3108 7.0546 13.3779 7.41125 13.5497 7.74852C13.8134 8.26596 14.2341 8.68666 14.7515 8.95031C15.0888 9.12215 15.4454 9.18927 15.8253 9.2203C16.1896 9.25006 16.6354 9.25005 17.1696 9.25004H19.5C19.9142 9.25004 20.25 8.91426 20.25 8.50004C20.25 8.08583 19.9142 7.75004 19.5 7.75004H17.2C16.6276 7.75004 16.2434 7.74946 15.9475 7.72529C15.6604 7.70183 15.5231 7.65994 15.4325 7.6138C15.1973 7.49396 15.0061 7.30273 14.8862 7.06753C14.8401 6.97697 14.7982 6.83969 14.7748 6.55256C14.7506 6.25669 14.75 5.87247 14.75 5.30004V3.00001ZM12.75 11.5C12.75 11.0858 12.4142 10.75 12 10.75C11.5858 10.75 11.25 11.0858 11.25 11.5V15.6894L10.0303 14.4697C9.73744 14.1768 9.26256 14.1768 8.96967 14.4697C8.67678 14.7626 8.67678 15.2374 8.96967 15.5303L11.4697 18.0303C11.7626 18.3232 12.2374 18.3232 12.5303 18.0303L15.0303 15.5303C15.3232 15.2374 15.3232 14.7626 15.0303 14.4697C14.7374 14.1768 14.2626 14.1768 13.9697 14.4697L12.75 15.6894V11.5Z"></path><path fill-rule="evenodd" clip-rule="evenodd" d="M13.8489 3.35078C13.4131 3.25415 12.9434 3.25001 11.7782 3.25001C10.4711 3.25001 9.53262 3.25051 8.79411 3.30645C8.06343 3.36178 7.58979 3.46822 7.20363 3.64832C6.29825 4.07057 5.57056 4.79827 5.1483 5.70364C4.9682 6.08981 4.86177 6.56344 4.80643 7.29413C4.7505 8.03263 4.75 8.97115 4.75 10.2782V14.5C4.75 15.9125 4.75058 16.9268 4.81563 17.7229C4.87996 18.5103 5.00359 19.018 5.21322 19.4295C5.62068 20.2292 6.27085 20.8793 7.07054 21.2868C7.48197 21.4964 7.9897 21.6201 8.77708 21.6844C9.57322 21.7494 10.5875 21.75 12 21.75C13.4125 21.75 14.4268 21.7494 15.2229 21.6844C16.0103 21.6201 16.518 21.4964 16.9295 21.2868C17.7291 20.8793 18.3793 20.2292 18.7868 19.4295C18.9964 19.018 19.12 18.5103 19.1844 17.7229C19.2494 16.9268 19.25 15.9125 19.25 14.5V10.8137C19.25 9.55507 19.2452 9.04798 19.1326 8.57894C19.0285 8.14528 18.8567 7.73072 18.6237 7.35046C18.3717 6.93917 18.0165 6.5772 17.1265 5.6872L16.7478 5.30852C15.9239 4.48455 15.5888 4.15537 15.2123 3.91553C14.7943 3.64921 14.3329 3.45808 13.8489 3.35078ZM11.8699 1.75001C12.9147 1.74989 13.5579 1.74983 14.1736 1.88635C14.8284 2.03152 15.4526 2.29011 16.0183 2.65042C16.5502 2.98926 17.0049 3.44412 17.7437 4.18301C17.765 4.20439 17.7866 4.226 17.8085 4.24786L18.1872 4.62654C18.2108 4.65014 18.2341 4.67348 18.2572 4.69655C19.0552 5.4944 19.5466 5.98565 19.9027 6.56671C20.2179 7.08118 20.4503 7.64206 20.5911 8.22877C20.7502 8.89143 20.7501 9.58624 20.75 10.7147C20.75 10.7473 20.75 10.7803 20.75 10.8137V14.5336C20.75 15.9053 20.75 16.9807 20.6794 17.8451C20.6075 18.7252 20.4586 19.4523 20.1233 20.1105C19.572 21.1924 18.6924 22.072 17.6104 22.6233C16.9523 22.9586 16.2252 23.1075 15.3451 23.1794C14.4807 23.25 13.4053 23.25 12.0336 23.25H11.9664C10.5947 23.25 9.51928 23.25 8.65494 23.1794C7.77479 23.1075 7.04769 22.9586 6.38955 22.6233C5.30762 22.072 4.42798 21.1924 3.87671 20.1105C3.54138 19.4523 3.39252 18.7252 3.32061 17.8451C3.24999 16.9807 3.25 15.9053 3.25 14.5336V10.2472C3.25 8.97782 3.24999 7.98261 3.31072 7.18085C3.37252 6.36474 3.50039 5.68821 3.78888 5.06963C4.36017 3.84471 5.3447 2.86018 6.56962 2.28889C7.18819 2.0004 7.86473 1.87254 8.68083 1.81073C9.4826 1.75001 10.4778 1.75001 11.7472 1.75001L11.7782 1.75001C11.8091 1.75001 11.8396 1.75001 11.8699 1.75001Z"></path></svg>