<svg xmlns="http://www.w3.org/2000/svg" width="22" height="23" viewBox="0 0 22 23"><path fill-rule="evenodd" clip-rule="evenodd" d="M11 1.58176C5.77256 1.58176 1.53488 5.81944 1.53488 11.0469C1.53488 16.2743 5.77256 20.512 11 20.512C16.2274 20.512 20.4651 16.2743 20.4651 11.0469C20.4651 5.81944 16.2274 1.58176 11 1.58176ZM0 11.0469C0 4.97174 4.92487 0.046875 11 0.046875C17.0751 0.046875 22 4.97174 22 11.0469C22 17.122 17.0751 22.0469 11 22.0469C4.92487 22.0469 0 17.122 0 11.0469ZM6.13953 11.0469C6.13953 10.623 6.48313 10.2794 6.90698 10.2794H15.093C15.5169 10.2794 15.8605 10.623 15.8605 11.0469C15.8605 11.4707 15.5169 11.8143 15.093 11.8143H6.90698C6.48313 11.8143 6.13953 11.4707 6.13953 11.0469Z"></path></svg>