<svg xmlns="http://www.w3.org/2000/svg" width="2022" height="519" viewBox="0 0 2022 519" fill="none"><path fill-rule="evenodd" clip-rule="evenodd" d="M2021 519C2021.55 519 2022 518.552 2022 518L2022 44C2022 43.4477 2021.55 43 2021 43L1131.52 42.9999C1093.52 42.9999 1056.1 4.93583 1018.36 0.435093C1015.95 0.148227 1013.5 -8.81661e-05 1011 -8.83844e-05C1008.5 -8.86028e-05 1006.05 0.148227 1003.64 0.435092C965.903 4.93588 928.482 42.9999 890.477 42.9999L1.00004 42.9998C0.447796 42.9998 4.15741e-05 43.4475 4.15258e-05 43.9998L8.74227e-08 518C3.91406e-08 518.552 0.447632 519 1 519L2021 519Z" fill="#D9D9D9"></path></svg>